<svg id="Icons" xmlns="http://www.w3.org/2000/svg" viewBox="0 0 32 32"><title>_</title><path d="M8.9,25.9,7.49,24.49a12,12,0,0,0,0-17L8.9,6.1A14,14,0,0,1,8.9,25.9Z"/><path d="M6.07,23.07,4.66,21.66a8,8,0,0,0,0-11.31L6.07,8.93A10,10,0,0,1,6.07,23.07Z"/><path d="M3.24,20.24,1.83,18.83a4,4,0,0,0,0-5.66l1.41-1.41A6,6,0,0,1,3.24,20.24Z"/><rect x="15" y="3" width="2" height="26"/><rect x="19" y="14.18" width="2" height="4"/><rect x="23" y="14.18" width="2" height="4"/><rect x="27" y="14.18" width="2" height="4"/></svg>