<?xml version="1.0" encoding="utf-8"?>
<!-- Generator: Adobe Illustrator 24.0.1, SVG Export Plug-In . SVG Version: 6.00 Build 0)  -->
<!DOCTYPE svg PUBLIC "-//W3C//DTD SVG 1.1//EN" "http://www.w3.org/Graphics/SVG/1.1/DTD/svg11.dtd" [
	<!ENTITY ns_extend "http://ns.adobe.com/Extensibility/1.0/">
	<!ENTITY ns_ai "http://ns.adobe.com/AdobeIllustrator/10.0/">
	<!ENTITY ns_graphs "http://ns.adobe.com/Graphs/1.0/">
	<!ENTITY ns_vars "http://ns.adobe.com/Variables/1.0/">
	<!ENTITY ns_imrep "http://ns.adobe.com/ImageReplacement/1.0/">
	<!ENTITY ns_sfw "http://ns.adobe.com/SaveForWeb/1.0/">
	<!ENTITY ns_custom "http://ns.adobe.com/GenericCustomNamespace/1.0/">
	<!ENTITY ns_adobe_xpath "http://ns.adobe.com/XPath/1.0/">
]>
<svg version="1.1" id="Icons" xmlns:x="&ns_extend;" xmlns:i="&ns_ai;" xmlns:graph="&ns_graphs;"
	 xmlns="http://www.w3.org/2000/svg" xmlns:xlink="http://www.w3.org/1999/xlink" x="0px" y="0px" viewBox="0 0 32 32"
	 style="enable-background:new 0 0 32 32;" xml:space="preserve">
<metadata>
	<sfw  xmlns="&ns_sfw;">
		<slices></slices>
		<sliceSourceBounds  bottomLeftOrigin="true" height="16383" width="20630.73" x="-6837.429" y="-6749.75"></sliceSourceBounds>
	</sfw>
</metadata>
<path d="M24.477,14.508c-0.8,0-1.472,0.672-1.472,1.505v-0.017c0,0.288-0.192,0.512-0.448,0.512c-0.32,0-0.512-0.224-0.512-0.512
	l-0.032-1.554c0-0.863-0.672-1.536-1.473-1.536c-0.864,0-1.536,0.673-1.536,1.536v1.554c0,0.288-0.192,0.512-0.447,0.512
	c-0.32,0-0.544-0.224-0.544-0.512v-2.775c0-0.863-0.672-1.536-1.535-1.536c-0.8,0-1.472,0.673-1.472,1.536v2.743
	c0,0.32-0.192,0.544-0.48,0.544c-0.32,0-0.544-0.224-0.544-0.544V8.092c0-0.831-0.672-1.503-1.505-1.503
	c-0.8,0-1.472,0.672-1.472,1.503v3.338c-0.135-0.059-0.273-0.109-0.402-0.185c-0.834-0.489-1.428-1.274-1.672-2.21
	C8.688,8.099,8.823,7.125,9.313,6.29c0.489-0.834,1.274-1.428,2.21-1.672c0.935-0.243,1.911-0.108,2.745,0.381
	c1.426,0.837,2.105,2.529,1.651,4.116c-0.152,0.531,0.155,1.085,0.687,1.237c0.532,0.148,1.085-0.156,1.236-0.687
	c0.705-2.466-0.349-5.094-2.562-6.392c-1.295-0.759-2.808-0.97-4.261-0.591c-1.453,0.378-2.671,1.3-3.431,2.595
	S6.618,8.087,6.996,9.54s1.3,2.672,2.596,3.431c0.446,0.261,0.924,0.433,1.414,0.562v7.744c0,0.512-0.544,0.64-0.832,0.384
	l-3.281-3.249c-0.358-0.382-1.49-0.845-2.374,0.053c-0.884,0.898-0.439,2.032-0.063,2.375l7.381,7.476l0,0.001
	c0.001,0.001,0.003,0.002,0.004,0.003l0.003,0.003l0-0.001c0.767,0.765,1.756,1.179,2.841,1.179h7.296c2.208,0,4-1.792,4-4v-9.487
	C25.981,15.18,25.309,14.508,24.477,14.508z"/>
</svg>
